<?xml version="1.0" encoding="iso-8859-1"?>
<!-- Generator: Adobe Illustrator 19.0.0, SVG Export Plug-In . SVG Version: 6.00 Build 0)  -->
<svg version="1.1" id="Layer_1" xmlns="http://www.w3.org/2000/svg" xmlns:xlink="http://www.w3.org/1999/xlink" x="0px" y="0px"
	 viewBox="0 0 503.467 503.467" style="enable-background:new 0 0 503.467 503.467;" xml:space="preserve">
<g transform="translate(1 1)">
	<path style="fill:#FF7474;" d="M342.893,164.974c0-52.053-41.813-93.867-93.867-93.867s-93.867,41.813-93.867,93.867
		s41.813,93.867,93.867,93.867S342.893,217.027,342.893,164.974 M496.494,275.907L496.494,275.907c0,56.32-23.04,89.6-68.267,117.76
		c0,0-17.067,10.24-34.133,10.24v-25.6c0,0-51.2-34.133-145.067-34.133S103.96,378.307,103.96,378.307v25.6
		c-8.533,0-34.133-10.24-34.133-10.24C24.6,364.654,1.56,332.227,1.56,275.907l0,0c47.787-4.267,85.333-44.373,85.333-93.867
		c0-26.453-11.093-51.2-29.867-68.267c12.8-17.067,98.133-110.933,192-110.933s180.053,93.867,192,110.933
		c-17.92,17.067-29.867,41.813-29.867,68.267C411.16,230.68,448.707,270.787,496.494,275.907"/>
	<path style="fill:#ECF4F7;" d="M493.08,236.654c0,0,3.413,17.92,3.413,38.4c-47.787-4.267-85.333-44.373-85.333-93.013
		c0-27.307,11.093-51.2,29.867-68.267C467.48,149.614,486.254,192.28,493.08,236.654z M249.027,71.107
		c52.053,0,93.867,41.813,93.867,93.867s-41.813,93.867-93.867,93.867s-93.867-41.813-93.867-93.867S196.973,71.107,249.027,71.107z
		 M56.173,114.627l0.853-0.853c17.92,17.067,29.867,40.96,29.867,68.267c0,48.64-37.547,88.747-85.333,93.867
		c0-44.373,12.8-87.893,34.133-128C35.693,147.907,45.08,128.28,56.173,114.627z"/>
	<path style="fill:#FFD0A1;" d="M394.094,403.907v25.6c0,34.133-34.133,68.267-145.067,68.267S103.96,463.64,103.96,429.507v-25.6
		v-25.6c0,0,51.2-34.133,145.067-34.133s145.067,34.133,145.067,34.133V403.907z"/>
</g>
<path style="fill:#51565F;" d="M250.027,503.04c-129.707,0-149.333-45.227-149.333-72.533v-51.2c0-1.707,0.853-2.56,1.707-3.413
	c2.56-1.707,53.76-34.987,147.627-34.987s145.067,33.28,147.627,34.987c0.853,0.853,1.707,1.707,1.707,3.413v51.2
	C399.36,457.814,379.733,503.04,250.027,503.04z M109.227,381.867v48.64c0,40.96,51.2,64,140.8,64s140.8-23.04,140.8-64v-48.64
	c-10.24-5.973-59.733-32.427-140.8-32.427C168.107,349.44,119.467,375.894,109.227,381.867z M292.694,417.707
	c-2.56,0-4.267-1.707-4.267-4.267v-17.067c0-2.56,1.707-4.267,4.267-4.267s4.267,1.707,4.267,4.267v17.067
	C296.96,416,295.254,417.707,292.694,417.707z M207.36,417.707c-2.56,0-4.267-1.707-4.267-4.267v-17.067
	c0-2.56,1.707-4.267,4.267-4.267s4.267,1.707,4.267,4.267v17.067C211.627,416,209.92,417.707,207.36,417.707z M429.227,398.934
	c-1.707,0-2.56-0.853-3.413-1.707c-0.853-1.707-0.853-4.267,1.707-5.973c46.08-29.013,65.707-61.44,66.56-110.933
	c-48.64-5.973-85.333-47.787-85.333-97.28c0-26.453,10.24-50.347,28.16-69.12C422.4,96.853,342.187,8.107,250.88,8.107
	c-85.333,0-165.547,81.067-186.027,106.667c17.92,18.773,28.16,42.667,28.16,68.267c0,49.493-36.693,91.307-85.333,97.28
	c0.853,49.493,20.48,81.92,66.56,110.933c1.707,0.853,2.56,4.267,1.707,5.973c-0.853,1.707-4.267,2.56-5.973,1.707
	C19.627,367.36,0,332.374,0,277.76l0,0l0,0c0-43.52,11.947-87.893,34.133-129.707c0.853-1.707,3.413-2.56,5.973-1.707
	c1.707,0.853,2.56,3.413,1.707,5.973c-21.333,38.4-32.427,80.213-33.28,120.32c44.373-5.973,76.8-43.52,76.8-88.747
	c0-24.747-10.24-47.787-28.16-64.853c-1.707-1.707-1.707-4.267-0.853-5.973C72.534,90.88,158.72,0.427,251.734,0.427
	c92.16,0,177.493,88.747,195.413,112.64l0,0c27.307,38.4,46.08,81.067,52.907,124.587c0,2.56-0.853,4.267-3.413,5.12
	c-2.56,0-4.267-0.853-5.12-3.413c-6.827-40.96-23.04-81.067-48.64-116.907c-16.213,17.067-24.747,38.4-24.747,62.293
	c0,46.933,34.987,85.333,81.067,89.6c2.56,0,4.267,1.707,4.267,4.267c0,54.613-20.48,90.453-70.827,122.027
	C430.08,398.934,430.08,398.934,429.227,398.934z M250.027,264.107c-53.76,0-98.133-44.373-98.133-98.133
	s44.373-98.133,98.133-98.133s98.133,44.373,98.133,98.133S303.787,264.107,250.027,264.107z M250.027,76.374
	c-49.493,0-89.6,40.107-89.6,89.6s40.107,89.6,89.6,89.6s89.6-40.107,89.6-89.6S299.52,76.374,250.027,76.374z"/>
<g>
</g>
<g>
</g>
<g>
</g>
<g>
</g>
<g>
</g>
<g>
</g>
<g>
</g>
<g>
</g>
<g>
</g>
<g>
</g>
<g>
</g>
<g>
</g>
<g>
</g>
<g>
</g>
<g>
</g>
</svg>
