<?xml version="1.0" encoding="iso-8859-1"?>
<!-- Generator: Adobe Illustrator 19.0.0, SVG Export Plug-In . SVG Version: 6.00 Build 0)  -->
<svg version="1.1" id="Capa_1" xmlns="http://www.w3.org/2000/svg" xmlns:xlink="http://www.w3.org/1999/xlink" x="0px" y="0px"
	 viewBox="0 0 512.003 512.003" style="enable-background:new 0 0 512.003 512.003;" xml:space="preserve">
<circle style="fill:#FF9800;" cx="256.002" cy="256.002" r="256.002"/>
<path style="fill:#D97616;" d="M512,256.001c0-24.282-3.341-46.977-9.529-69.406l-50.755-50.755l-39.343,0.069l0.05,9.708
	l14.045,14.046l-16.121,22.68v0.077l-19.782-19.782h-58.966v14.065l21.014,21.014l-3.168,4.532L216.458,69.261l0,0
	c-99.978,4.733-179.584,87.282-179.584,188.43c0,50.935,20.194,97.149,53.004,131.091l-0.027,0.027l118.803,118.803l0.006,0.001
	c15.847,2.962,32.447,4.386,47.34,4.386c0.143,0,0.284-0.005,0.427-0.005C397.612,511.755,512,397.25,512,256.001z"/>
<path style="fill:#FFE050;" d="M312.339,372.885c-92.203,0-166.948-74.745-166.948-166.948c0-56.519,28.091-106.472,71.068-136.676
	c-99.977,4.732-179.584,87.282-179.584,188.43c0,104.19,84.462,188.651,188.651,188.651c68.467,0,128.414-36.476,161.473-91.054
	C364.531,366.542,339.177,372.885,312.339,372.885z"/>
<polygon style="fill:#044FA6;" points="308.148,202.049 234.633,202.049 234.633,219.585 279.147,219.585 230.857,288.663 
	230.857,300.315 306.664,300.315 306.664,282.78 259.858,282.78 308.148,213.706 "/>
<g>
	<path style="fill:#376BB7;" d="M318.414,236.964c-0.016,0.016-0.04,0.023-0.049,0.048
		C318.35,237.055,318.371,237.03,318.414,236.964z"/>
	<polygon style="fill:#376BB7;" points="390.567,162.639 331.602,162.639 331.602,176.705 367.305,176.705 328.573,232.112 
		328.573,241.459 389.377,241.459 389.377,227.393 351.834,227.393 390.567,171.989 	"/>
</g>
<g>
	<path style="fill:#639ED5;" d="M403.56,185.585c-0.011,0.011-0.027,0.015-0.033,0.032
		C403.517,185.648,403.531,185.63,403.56,185.585z"/>
	<polygon style="fill:#639ED5;" points="451.786,135.909 412.374,135.909 412.374,145.31 436.238,145.31 410.349,182.343 
		410.349,188.59 450.991,188.59 450.991,179.189 425.897,179.189 451.786,142.157 	"/>
</g>
<g>
</g>
<g>
</g>
<g>
</g>
<g>
</g>
<g>
</g>
<g>
</g>
<g>
</g>
<g>
</g>
<g>
</g>
<g>
</g>
<g>
</g>
<g>
</g>
<g>
</g>
<g>
</g>
<g>
</g>
</svg>
